<svg xmlns="http://www.w3.org/2000/svg" width="242" height="85" viewBox="0 0 242 85" version="1.1"><path d="M 10 41.406 C 10 76.165, 9.345 72.995, 16.230 71.546 L 18.960 70.972 19.230 50.405 L 19.500 29.838 23.912 46.169 C 26.339 55.151, 28.722 63.962, 29.209 65.750 C 29.974 68.561, 30.527 68.998, 33.297 68.986 C 35.059 68.979, 37.513 68.701, 38.750 68.370 L 41 67.767 41 38.883 L 41 10 36 10 L 31 10 30.942 24.250 L 30.884 38.500 26.821 24.250 L 22.759 10 16.380 10 L 10 10 10 41.406 M 46.500 38.500 L 46.500 67 51.750 67 L 57 67 57 38.500 L 57 10 51.750 10 L 46.500 10 46.500 38.500 M 63 38.009 L 63 66.017 68.250 65.525 C 71.138 65.255, 76.987 64.762, 81.250 64.431 L 89 63.829 89 59.415 L 89 55 81 55 L 73 55 73 32.500 L 73 10 68 10 L 63 10 63 38.009 M 92 37 L 92 64 97.250 63.994 C 100.138 63.991, 106.213 63.699, 110.750 63.346 L 119 62.704 119 58.352 L 119 54 111 54 L 103 54 103 47.048 L 103 40.095 109.250 39.798 L 115.500 39.500 115.807 35.250 L 116.115 31 109.557 31 L 103 31 103 24.500 L 103 18 111 18 L 119 18 119 14 L 119 10 105.500 10 L 92 10 92 37 M 124 36.500 L 124 63 128.500 63 C 130.975 63, 133.279 62.999, 133.621 62.998 C 133.962 62.997, 134.163 58.047, 134.067 51.998 L 133.892 41 139.946 41 L 146 41 146 36.500 L 146 32 140 32 L 134 32 134 25 L 134 18 142 18 L 150 18 150 14 L 150 10 137 10 L 124 10 124 36.500 M 153 36.915 L 153 63.829 160.250 64.408 C 172.852 65.413, 178.929 65.524, 178.965 64.750 C 178.984 64.338, 179 62.200, 179 60 C 179 56.046, 178.956 56, 175.250 55.989 C 173.188 55.983, 169.813 55.699, 167.750 55.358 L 164 54.738 164 32.369 L 164 10 158.500 10 L 153 10 153 36.915 M 182.780 37.891 C 183.060 65.749, 183.063 65.783, 185.280 66.378 C 186.501 66.705, 188.738 66.979, 190.250 66.986 L 193 67 193 38.500 L 193 10 187.750 9.999 L 182.500 9.999 182.780 37.891 M 202.191 23.633 L 207.088 37.266 202.541 50.205 C 200.040 57.321, 197.526 64.017, 196.954 65.086 C 195.775 67.290, 196.139 67.505, 202.559 68.398 L 206.618 68.963 210.006 58.481 C 211.869 52.717, 213.655 48, 213.974 48 C 214.294 48, 215.893 52.760, 217.528 58.578 C 219.162 64.396, 220.726 69.531, 221.003 69.988 C 221.857 71.399, 232 72.898, 232.001 71.613 C 232.002 71.001, 229.688 63.231, 226.860 54.346 L 221.717 38.192 226.723 24.096 L 231.728 10 226.552 10 L 221.376 10 218.477 19.071 C 216.883 24.061, 215.336 28.291, 215.039 28.471 C 214.743 28.652, 213.190 24.570, 211.589 19.400 L 208.678 10 202.986 10 L 197.294 10 202.191 23.633" stroke="none" fill="#fffcfc" fill-rule="evenodd"/><path d="" stroke="none" fill="#fcfcfc" fill-rule="evenodd"/></svg>